HIERARCHY
ROOT root
{
	OFFSET 0.000000 0.000000 0.000000
	CHANNELS 6 Xposition Yposition Zposition Zrotation Yrotation Xrotation
	JOINT lhip
	{
		OFFSET 0.058581 -0.082280 -0.017664
		CHANNELS 3 Zrotation Yrotation Xrotation
		JOINT lknee
		{
			OFFSET 0.043451 -0.386469 0.008037
			CHANNELS 3 Zrotation Yrotation Xrotation
			JOINT lankle
			{
				OFFSET -0.014790 -0.426874 -0.037428
				CHANNELS 3 Zrotation Yrotation Xrotation
				JOINT ltoe
				{
					OFFSET 0.041054 -0.060286 0.122042
					CHANNELS 3 Zrotation Yrotation Xrotation
					End Site
					{
						OFFSET 0.000000 0.000000 0.000000
					}
				}
			}
		}
	}
	JOINT rhip
	{
		OFFSET -0.060310 -0.090513 -0.013543
		CHANNELS 3 Zrotation Yrotation Xrotation
		JOINT rknee
		{
			OFFSET -0.043257 -0.383688 -0.004843
			CHANNELS 3 Zrotation Yrotation Xrotation
			JOINT rankle
			{
				OFFSET 0.019056 -0.420046 -0.034562
				CHANNELS 3 Zrotation Yrotation Xrotation
				JOINT rtoe
				{
					OFFSET -0.034840 -0.062106 0.130323
					CHANNELS 3 Zrotation Yrotation Xrotation
					End Site
					{
						OFFSET 0.000000 0.000000 0.000000
					}
				}
			}
		}
	}
	JOINT lowerback
	{
		OFFSET 0.004439 0.124404 -0.038385
		CHANNELS 3 Zrotation Yrotation Xrotation
		JOINT upperback
		{
			OFFSET 0.004488 0.137956 0.026820
			CHANNELS 3 Zrotation Yrotation Xrotation
			JOINT chest
			{
				OFFSET -0.002265 0.056032 0.002855
				CHANNELS 3 Zrotation Yrotation Xrotation
				JOINT lowerneck
				{
					OFFSET -0.013390 0.211636 -0.033468
					CHANNELS 3 Zrotation Yrotation Xrotation
					JOINT upperneck
					{
						OFFSET 0.010113 0.088937 0.050410
						CHANNELS 3 Zrotation Yrotation Xrotation
						End Site
						{
							OFFSET 0.000000 0.000000 0.000000
						}
					}
				}
				JOINT lclavicle
				{
					OFFSET 0.071702 0.114000 -0.018898
					CHANNELS 3 Zrotation Yrotation Xrotation
					JOINT lshoulder
					{
						OFFSET 0.122921 0.045205 -0.019046
						CHANNELS 3 Zrotation Yrotation Xrotation
						JOINT lelbow
						{
							OFFSET 0.255332 -0.015649 -0.022946
							CHANNELS 3 Zrotation Yrotation Xrotation
							JOINT lwrist
							{
								OFFSET 0.265709 0.012698 -0.007375
								CHANNELS 3 Zrotation Yrotation Xrotation
								End Site
								{
									OFFSET 0.000000 0.000000 0.000000
								}
							}
						}
					}
				}
				JOINT rclavicle
				{
					OFFSET -0.082954 0.112472 -0.023707
					CHANNELS 3 Zrotation Yrotation Xrotation
					JOINT rshoulder
					{
						OFFSET -0.113228 0.046853 -0.008472
						CHANNELS 3 Zrotation Yrotation Xrotation
						JOINT relbow
						{
							OFFSET -0.260127 -0.014369 -0.031269
							CHANNELS 3 Zrotation Yrotation Xrotation
							JOINT rwrist
							{
								OFFSET -0.269108 0.006794 -0.006027
								CHANNELS 3 Zrotation Yrotation Xrotation
								End Site
								{
									OFFSET 0.000000 0.000000 0.000000
								}
							}
						}
					}
				}
			}
		}
	}
}
MOTION
Frames: 8
Frame Time: 0.033333
-0.034251 0.273843 0.858666 89.430224 -4.319877 91.502155 5.108859 8.382920 -36.968994 -13.333145 12.680055 58.854239 3.119221 6.826405 -26.876645 0.000000 -0.000000 0.000000 -18.425287 -16.600235 -40.977840 9.604443 -13.077776 65.222029 1.882228 -1.856510 -23.409152 0.000000 -0.000000 0.000000 12.168746 -4.675071 36.028846 10.849570 1.555891 0.810838 5.754833 0.937143 0.311570 -10.149660 -1.216008 -8.122313 -19.792993 -4.762060 -5.015655 -24.534686 -1.387321 -6.766284 -25.746816 -2.787862 2.164839 48.101598 -73.712790 -31.766832 -20.119753 -11.830427 -10.977031 33.798188 13.161234 0.146951 -1.186084 15.360638 -12.037728 -42.491500 46.590279 -40.563944 21.981028 -2.097619 18.482673 
-0.034124 0.274209 0.859554 89.377987 -4.396379 91.543969 5.020171 8.299947 -36.855280 -13.313350 12.709638 58.604044 3.089280 6.865296 -26.865947 0.000000 -0.000000 0.000000 -18.484536 -16.639075 -40.930127 9.382225 -13.095637 65.101393 1.897293 -1.549521 -23.315571 0.000000 -0.000000 0.000000 12.100325 -4.639339 36.042840 10.825051 1.471212 0.738188 5.756113 1.026751 0.366523 -10.126980 -1.206444 -8.035481 -19.658188 -4.726925 -5.122929 -24.491100 -1.369726 -6.829326 -25.693658 -2.793064 2.264302 48.381971 -73.771920 -32.085863 -19.870841 -11.885792 -11.029111 33.999908 13.104094 0.043109 -1.433462 15.319743 -11.964536 -42.301069 46.866837 -40.501319 21.611629 -1.962023 18.642689 
-0.034111 0.274322 0.860356 89.074522 -4.395310 91.744339 5.060497 8.475760 -36.839383 -13.277766 12.853795 58.329037 3.042606 6.766330 -26.777572 0.000000 -0.000000 0.000000 -18.238030 -16.612987 -41.190524 9.407789 -12.851621 64.900640 1.854463 -1.571888 -23.169719 0.000000 -0.000000 0.000000 11.991576 -4.428187 35.845561 10.836028 1.503553 0.949002 5.797190 1.071270 0.290118 -10.192001 -1.265017 -7.934721 -19.533516 -4.597172 -5.251879 -24.544493 -1.381452 -6.830757 -25.565584 -2.723872 2.241101 49.040589 -73.852210 -32.992539 -19.620018 -11.775287 -11.005034 34.075765 13.177286 0.111668 -1.520514 15.221602 -11.906726 -42.437211 47.125375 -40.762273 21.879779 -1.764303 18.789475 
-0.033650 0.274718 0.861670 89.213587 -4.333164 91.639165 5.035845 8.316191 -36.584972 -13.317489 12.658451 58.052962 2.993992 6.872238 -26.645426 0.000000 -0.000000 0.000000 -18.319668 -16.523811 -40.763439 9.414017 -12.942025 64.536780 1.922333 -1.594474 -23.086374 0.000000 -0.000000 0.000000 12.072647 -4.556893 35.876763 10.838973 1.470901 1.030793 5.819093 1.091894 0.312310 -10.184982 -1.245268 -7.958366 -19.534100 -4.585244 -5.328818 -24.412271 -1.443555 -6.847387 -25.720698 -2.868561 2.225844 50.123393 -73.734931 -34.320025 -19.617760 -11.679878 -11.653275 33.981808 13.147386 0.052438 -1.429560 15.211092 -11.815347 -42.670999 47.265089 -40.963016 21.736164 -1.774457 18.994794 
-0.033333 0.274822 0.862318 88.913448 -4.377162 91.798565 4.981636 8.472419 -36.545197 -13.333382 12.661212 57.823648 3.063463 6.884090 -26.614291 0.000000 -0.000000 0.000000 -18.183434 -16.463371 -40.993746 9.443644 -12.734964 64.433829 1.959027 -1.566613 -22.960001 0.000000 -0.000000 0.000000 11.977706 -4.335617 35.747377 10.835383 1.537508 1.113199 5.835775 1.100013 0.237930 -10.269401 -1.321190 -7.806183 -19.594684 -4.575078 -5.493622 -24.531689 -1.431225 -6.805578 -25.543773 -2.853474 2.206492 50.334611 -73.780748 -34.632059 -19.618625 -11.542706 -11.632621 34.102373 13.121744 0.136012 -1.493224 15.173351 -11.764413 -42.874907 47.381458 -41.120261 21.733008 -1.846326 19.027816 
-0.032829 0.275106 0.863210 89.130966 -4.287920 91.650414 4.951671 8.336190 -36.378696 -13.248583 12.487377 57.795091 2.944552 6.900547 -26.529981 0.000000 -0.000000 0.000000 -18.257656 -16.376611 -40.547974 9.366208 -12.888649 64.183225 1.963250 -1.617794 -22.998586 0.000000 -0.000000 0.000000 12.098118 -4.532903 35.853550 10.841548 1.471089 0.991128 5.837231 1.082501 0.353947 -10.305897 -1.295116 -8.002263 -19.584656 -4.630464 -5.261376 -24.352965 -1.433414 -6.800463 -25.699421 -2.891479 2.155989 50.327234 -73.760030 -34.417458 -19.682512 -11.631921 -11.550894 33.976289 13.120814 0.045787 -1.351542 15.194351 -11.801986 -42.882729 47.521350 -40.962699 21.768650 -1.744306 19.086405 
-0.032224 0.275353 0.863841 88.961741 -4.288688 91.749004 4.948752 8.394918 -36.271854 -13.344015 12.426603 57.542295 2.964774 6.929058 -26.548566 0.000000 -0.000000 0.000000 -18.192230 -16.283032 -40.612565 9.366230 -12.790414 64.065196 2.033724 -1.588747 -22.878039 0.000000 -0.000000 0.000000 12.049468 -4.477302 35.773273 10.826712 1.526623 0.983182 5.828444 1.088650 0.334921 -10.285324 -1.308039 -7.900458 -19.582300 -4.657875 -5.333861 -24.404835 -1.408551 -6.796461 -25.631377 -2.841867 2.201409 50.355855 -73.792389 -34.387087 -19.668016 -11.527765 -11.344583 33.988110 13.086208 0.084614 -1.322683 15.184206 -11.707583 -42.844226 47.625748 -40.823229 21.764104 -1.881891 19.043376 
-0.031664 0.275455 0.864431 88.687274 -4.291317 91.840573 4.925914 8.629310 -36.200658 -13.204299 12.525858 57.458821 2.877954 6.842627 -26.554585 0.000000 -0.000000 0.000000 -17.992942 -16.270313 -40.768803 9.365439 -12.500848 64.005862 2.131519 -1.473383 -22.791291 0.000000 -0.000000 0.000000 11.956053 -4.247587 35.693659 10.842790 1.592456 1.106662 5.892514 1.083494 0.232680 -10.253026 -1.327835 -7.837455 -19.624379 -4.577056 -5.372270 -24.526825 -1.416783 -6.787101 -25.587928 -2.796422 2.162068 50.163753 -73.822828 -34.009074 -19.497097 -11.488397 -10.728640 34.035947 13.100691 0.131968 -1.463242 15.079780 -11.729584 -42.767123 47.694366 -40.647834 21.858390 -1.829548 19.161166 
